<svg xmlns="http://www.w3.org/2000/svg" width="27.896" height="28.817" viewBox="0 0 27.896 28.817">
  <g id="Group_2208" data-name="Group 2208" transform="translate(-11.811 -568.864)" opacity="0.379">
    <g id="Group_2207" data-name="Group 2207" transform="translate(12.311 569.364)">
      <path id="Path_1333" data-name="Path 1333" d="M35.517,579.569H28.676a1.42,1.42,0,0,1-1.388-1.64l.407-2.758a9.464,9.464,0,0,0-.122-3.423l-.167-.75a2.065,2.065,0,0,0-2.006-1.634h-.065a2.02,2.02,0,0,0-1.993,2.067,9.456,9.456,0,0,1-.751,3.718l-1.24,2.917a2.448,2.448,0,0,1-2.246,1.5H12.311v17.612H35.517a3.722,3.722,0,0,0,3.69-3.754V583.32A3.721,3.721,0,0,0,35.517,579.569Z" transform="translate(-12.311 -569.364)" fill="#03c5fc" stroke="#707070" stroke-width="1"/>
    </g>
  </g>
</svg>
