<svg xmlns="http://www.w3.org/2000/svg" width="40.608" height="39.99" viewBox="0 0 40.608 39.99">
  <g id="Group_3581" data-name="Group 3581" transform="translate(-32.5 -139.15)">
    <g id="Group_2801" data-name="Group 2801" transform="translate(32.823 139.474)">
      <g id="Group_2800" data-name="Group 2800" transform="translate(0 0)">
        <rect id="Rectangle_185" data-name="Rectangle 185" width="19.397" height="39.343" rx="2.586" fill="#ecf4f7"/>
      </g>
    </g>
    <g id="Group_2807" data-name="Group 2807" transform="translate(57.325 158.616)">
      <g id="Group_2806" data-name="Group 2806">
        <path id="Path_1672" data-name="Path 1672" d="M225.417,664.737v1.544h.778a.772.772,0,0,0,.771-.772h0a.772.772,0,0,0-.771-.772Z" transform="translate(-225.417 -664.737)" fill="#fddf7f"/>
      </g>
    </g>
    <g id="Group_2815" data-name="Group 2815" transform="translate(55.246 156.002)">
      <g id="Group_2814" data-name="Group 2814">
        <path id="Path_1676" data-name="Path 1676" d="M224.615,667.619h0a.8.8,0,0,1-.8-.8v-4.541h1.606v4.541A.8.8,0,0,1,224.615,667.619Z" transform="translate(-223.811 -662.276)" fill="#aab1ba"/>
      </g>
    </g>
    <g id="Group_2817" data-name="Group 2817" transform="translate(66.729 150.988)">
      <g id="Group_2816" data-name="Group 2816">
        <path id="Path_1677" data-name="Path 1677" d="M231.53,658.5a1.783,1.783,0,1,1,0,3.565Z" transform="translate(-231.53 -658.498)" fill="#fddf7f"/>
      </g>
    </g>
    <g id="Group_2818" data-name="Group 2818" transform="translate(32.5 139.15)">
      <path id="Path_1678" data-name="Path 1678" d="M206.332,657.709V652.75a3.678,3.678,0,0,1,3.742-3.6h18.292a3.677,3.677,0,0,1,3.742,3.6v6.212a.416.416,0,0,1-.832,0V652.75a2.859,2.859,0,0,0-2.91-2.8H210.074a2.859,2.859,0,0,0-2.91,2.8v4.959a.416.416,0,0,1-.832,0Zm.417,2.319a.408.408,0,0,0,.415-.4v-.6a.416.416,0,0,0-.832,0v.6A.409.409,0,0,0,206.749,660.028Zm0,3.919a.408.408,0,0,0,.415-.4v-2.319a.416.416,0,0,0-.832,0v2.319A.409.409,0,0,0,206.749,663.947Zm24.945,9.11a.408.408,0,0,0-.417.4V685.54a2.859,2.859,0,0,1-2.91,2.8H210.074a2.859,2.859,0,0,1-2.91-2.8V664.946a.416.416,0,0,0-.832,0V685.54a3.677,3.677,0,0,0,3.742,3.6h18.292a3.677,3.677,0,0,0,3.742-3.6V673.456A.408.408,0,0,0,231.693,673.057ZM210.684,651.55a1.825,1.825,0,0,0-1.857,1.786v2.213a.416.416,0,0,0,.832,0v-2.213a1.006,1.006,0,0,1,1.025-.986h1.552a.4.4,0,1,0,0-.8Zm5.045,0a.4.4,0,1,0,0,.8h.872a.4.4,0,1,0,0-.8Zm-1.664,0a.4.4,0,1,0,0,.8h.458a.4.4,0,1,0,0-.8Zm5.156,36.056a1.774,1.774,0,1,1,1.843-1.773A1.81,1.81,0,0,1,219.22,687.606Zm0-.8a.974.974,0,1,0-1.012-.974A.994.994,0,0,0,219.22,686.807Zm22.226-23.888a2.643,2.643,0,0,1-2.293,2.573v3.363a.4.4,0,0,1-.253.369.439.439,0,0,1-.163.031.423.423,0,0,1-.288-.111l-2.858-2.656a2.638,2.638,0,0,0-1.8-.7h-2.5v2.244h.585a1.355,1.355,0,1,1,0,2.709h-.585V671a1.422,1.422,0,0,1-1.447,1.392h0A1.422,1.422,0,0,1,228.395,671v-.263H226a.759.759,0,0,0-.773.743v11.505a.416.416,0,0,1-.832,0V671.484a1.577,1.577,0,0,1,1.6-1.544h2.4V668.83H216.007a2.125,2.125,0,0,0-2.163,2.081v12.078a.416.416,0,0,1-.832,0V670.911a2.942,2.942,0,0,1,3-2.88h.905a5.83,5.83,0,0,1-3.029-5.065,5.991,5.991,0,0,1,6.1-5.864,6.165,6.165,0,0,1,5.055,2.585.391.391,0,0,1-.112.555.425.425,0,0,1-.576-.108,5.326,5.326,0,0,0-4.367-2.233,5.069,5.069,0,1,0,0,10.13,5.319,5.319,0,0,0,4.582-2.567.424.424,0,0,1,.567-.151.393.393,0,0,1,.156.546,5.991,5.991,0,0,1-2.235,2.172h5.345v-2.244h-1.007a2.871,2.871,0,1,1,0-5.738h6.4a2.638,2.638,0,0,0,1.8-.7l2.858-2.656a.428.428,0,0,1,.451-.08.4.4,0,0,1,.253.369v3.363A2.643,2.643,0,0,1,241.446,662.919Zm-10.156,5.911v1.109h.585a.555.555,0,1,0,0-1.109Zm-.831-3.043h-1.233V671a.606.606,0,0,0,.616.593h0a.605.605,0,0,0,.616-.593v-5.216Zm7.861-.664v-7.2l-2.151,2a3.487,3.487,0,0,1-2.382.925h-6.4a2.071,2.071,0,1,0,0,4.138h6.4a3.487,3.487,0,0,1,2.382.925l2.151,2Zm2.294-2.2a1.825,1.825,0,0,0-1.462-1.76v3.519A1.824,1.824,0,0,0,240.616,662.919Zm5.909-.353h-3.266a.4.4,0,1,0,0,.8h3.266a.4.4,0,1,0,0-.8Zm-3.943-1.723a.423.423,0,0,0,.294-.116l2.31-2.222a.389.389,0,0,0,0-.565.425.425,0,0,0-.588,0l-2.31,2.222a.387.387,0,0,0,0,.565A.422.422,0,0,0,242.582,660.843Zm.294,4.363a.428.428,0,0,0-.588,0,.387.387,0,0,0,0,.565l2.31,2.222a.426.426,0,0,0,.588,0,.389.389,0,0,0,0-.565ZM216.5,682.989v-10.5a.416.416,0,0,0-.832,0v10.5a.416.416,0,0,0,.832,0Z" transform="translate(-206.332 -649.15)" fill="#1c1d21"/>
    </g>
  </g>
</svg>
