<svg xmlns="http://www.w3.org/2000/svg" width="28.643" height="32.328" viewBox="0 0 28.643 32.328">
  <g id="Group_3579" data-name="Group 3579" transform="translate(-26.83 -26.712)">
    <g id="Group_1834" data-name="Group 1834" transform="translate(13 -476.962)">
      <g id="Group_1833" data-name="Group 1833">
        <rect id="Rectangle_105" data-name="Rectangle 105" width="24.529" height="31.682" rx="2.586" transform="translate(15.887 503.997)" fill="#ecf4f7"/>
      </g>
    </g>
    <g id="Group_1836" data-name="Group 1836" transform="translate(13 -476.962)">
      <g id="Group_1835" data-name="Group 1835">
        <path id="Path_1197" data-name="Path 1197" d="M29.261,533.329a1.11,1.11,0,1,1-1.109-1.11A1.109,1.109,0,0,1,29.261,533.329Z" fill="#aab1ba"/>
      </g>
    </g>
    <g id="Group_1838" data-name="Group 1838" transform="translate(13 -476.962)" opacity="0.56">
      <g id="Group_1837" data-name="Group 1837">
        <rect id="Rectangle_106" data-name="Rectangle 106" width="21.046" height="23.274" rx="1.08" transform="translate(17.628 506.888)" fill="#02c5ff"/>
      </g>
    </g>
    <g id="Group_1840" data-name="Group 1840" transform="translate(13 -476.962)">
      <g id="Group_1839" data-name="Group 1839">
        <path id="Rectangle_107" data-name="Rectangle 107" d="M.647,0h26.7A.646.646,0,0,1,28,.646V14.691a.647.647,0,0,1-.647.647H.647A.647.647,0,0,1,0,14.691V.647A.647.647,0,0,1,.647,0Z" transform="translate(14.153 511.82)" fill="#aab1ba"/>
      </g>
    </g>
    <g id="Group_1842" data-name="Group 1842" transform="translate(13 -476.962)">
      <g id="Group_1841" data-name="Group 1841">
        <path id="Path_1198" data-name="Path 1198" d="M28.152,511.794h0a10.523,10.523,0,0,0-6.287-2.086H15.887v15.364h5.978a10.523,10.523,0,0,1,6.287,2.086h0a10.517,10.517,0,0,1,6.286-2.086h5.978V509.708H34.438A10.517,10.517,0,0,0,28.152,511.794Z" fill="#ecf4f7"/>
      </g>
    </g>
    <g id="Group_1844" data-name="Group 1844" transform="translate(13 -476.962)">
      <g id="Group_1843" data-name="Group 1843">
        <path id="Path_1199" data-name="Path 1199" d="M37.9,509.708v4.31L36.614,512.9l-1.285,1.121v-4.31" fill="#06a543"/>
      </g>
    </g>
    <g id="Group_1845" data-name="Group 1845" transform="translate(13 -476.962)">
      <path id="Path_1200" data-name="Path 1200" d="M15.564,508.264v-1.681a2.912,2.912,0,0,1,2.909-2.909H37.83a2.912,2.912,0,0,1,2.909,2.909V508.2a.323.323,0,1,1-.646,0v-1.616a2.265,2.265,0,0,0-2.263-2.263H18.473a2.265,2.265,0,0,0-2.263,2.263v1.681a.323.323,0,0,1-.646,0Zm24.852,20.044a.323.323,0,0,0-.323.323v4.461a2.265,2.265,0,0,1-2.263,2.263H18.473a2.265,2.265,0,0,1-2.263-2.263v-4.4a.323.323,0,0,0-.646,0v4.4A2.913,2.913,0,0,0,18.473,536H37.83a2.913,2.913,0,0,0,2.909-2.91v-4.461A.322.322,0,0,0,40.416,528.308Zm-12.264,6.454a1.433,1.433,0,1,1,1.433-1.433A1.434,1.434,0,0,1,28.152,534.762Zm0-.646a.786.786,0,1,0-.787-.787A.788.788,0,0,0,28.152,534.116Zm-14-18.643a.323.323,0,0,0,.323-.323v-.55a.324.324,0,0,0-.647,0v.55A.323.323,0,0,0,14.154,515.473Zm28.319-3.006v14.044a.971.971,0,0,1-.97.97H14.8a.971.971,0,0,1-.97-.97v-10.2a.324.324,0,1,1,.647,0v10.2a.324.324,0,0,0,.323.324H27.085a10.266,10.266,0,0,0-5.22-1.44H15.887a.322.322,0,0,1-.323-.323V512.144H14.8a.324.324,0,0,0-.323.323v.97a.324.324,0,0,1-.647,0v-.97a.971.971,0,0,1,.97-.97h.764v-1.789a.323.323,0,0,1,.323-.323h5.978a10.921,10.921,0,0,1,6.287,2.009,10.915,10.915,0,0,1,6.286-2.009h5.978a.323.323,0,0,1,.323.323V511.5H41.5A.971.971,0,0,1,42.473,512.467Zm-6.821.841.749-.654a.324.324,0,0,1,.425,0l.749.654v-3.276H35.652Zm-1.214-3.276a10.264,10.264,0,0,0-5.963,1.926v14.579a10.916,10.916,0,0,1,5.963-1.788h5.655V510.032H38.222v3.987a.323.323,0,0,1-.536.243l-1.072-.935-1.073.935a.321.321,0,0,1-.213.08.329.329,0,0,1-.133-.029.324.324,0,0,1-.19-.294v-3.987ZM21.865,524.749a10.916,10.916,0,0,1,5.963,1.788V511.958a10.264,10.264,0,0,0-5.963-1.926H16.21v14.717Zm19.961-12.282a.324.324,0,0,0-.323-.323h-.764v12.928a.322.322,0,0,1-.323.323H34.438a10.266,10.266,0,0,0-5.22,1.44H41.5a.324.324,0,0,0,.323-.324Zm-14.3-7.242a.324.324,0,1,0,0,.647h1.25a.324.324,0,0,0,0-.647Zm2.6,0a.324.324,0,1,0,0,.647h.291a.324.324,0,0,0,0-.647Z" fill="#1c1d21"/>
    </g>
  </g>
</svg>
