<svg id="Group_2778" data-name="Group 2778" xmlns="http://www.w3.org/2000/svg" width="34.285" height="43.124" viewBox="0 0 34.285 43.124">
  <path id="Path_1663" data-name="Path 1663" d="M118.847,661.927v-.277a.445.445,0,0,1,.889,0v.277a.445.445,0,0,1-.889,0Zm.445,2.69a.438.438,0,0,0,.445-.432v-1.063a.445.445,0,0,0-.889,0v1.063A.439.439,0,0,0,119.291,664.618Zm7.388,13.838h-3.6a4.172,4.172,0,0,1-4.231-4.1v-7.134h-1.968a2.058,2.058,0,1,1,0-.862h1.968v-.766a.445.445,0,0,1,.889,0v8.761a3.3,3.3,0,0,0,3.342,3.237h3.6a.432.432,0,1,1,0,.863Zm-10.644-11.665a1.232,1.232,0,1,0-1.232,1.2A1.214,1.214,0,0,0,116.035,666.791Zm16.931,9.076h3.6a1.538,1.538,0,0,0,1.561-1.511V659.228a1.539,1.539,0,0,0-1.561-1.513H123.078a1.539,1.539,0,0,0-1.561,1.513v15.128a1.538,1.538,0,0,0,1.561,1.511h3.529a.431.431,0,1,0,0-.862h-3.529a.662.662,0,0,1-.67-.65V659.228a.661.661,0,0,1,.67-.65h13.491a.661.661,0,0,1,.672.65v15.128a.662.662,0,0,1-.672.65h-3.6a.431.431,0,1,0,0,.862Zm-2.058-11.62h4.264a.431.431,0,1,0,0-.862h-4.264a.431.431,0,1,0,0,.862Zm0-3.776h4.264a.431.431,0,1,0,0-.862h-4.264a.431.431,0,1,0,0,.862Zm0,1.889h4.264a.432.432,0,1,0,0-.863h-4.264a.432.432,0,1,0,0,.863Zm4.708,3.751a.437.437,0,0,0-.445-.431h-10.7a.431.431,0,1,0,0,.862h10.7A.438.438,0,0,0,135.617,666.111Zm-3.581,2.725h3.137a.431.431,0,1,0,0-.862h-3.137a.431.431,0,1,0,0,.862Zm-4.085-.431a.438.438,0,0,0-.445-.431h-3.032a.431.431,0,1,0,0,.862h3.032A.438.438,0,0,0,127.951,668.4Zm-1.272,1.863h-2.2a.431.431,0,1,0,0,.862h2.2a.431.431,0,1,0,0-.862Zm0,2.294h-2.2a.431.431,0,1,0,0,.862h2.2a.431.431,0,1,0,0-.862Zm8.493-2.294h-2.206a.431.431,0,1,0,0,.862h2.206a.431.431,0,1,0,0-.862Zm0,2.294h-2.206a.431.431,0,1,0,0,.862h2.206a.431.431,0,1,0,0-.862Zm-11.126-8.984a.862.862,0,0,1-.018-.169v-2.963a.852.852,0,0,1,.864-.838h4.112a.852.852,0,0,1,.864.838v2.963a.853.853,0,0,1-.864.838h-4.112A.86.86,0,0,1,124.047,663.579Zm2.863-.193-1.167-1.163-.823.646v.518Zm2.071-.54-.6-.584-.685.664.461.46h.829Zm-4.062-2.374v1.287l.578-.453a.455.455,0,0,1,.6.035l.973.968.994-.962a.455.455,0,0,1,.629,0l.289.28v-1.155ZM141.5,684.333v7.51a.445.445,0,0,1-.889,0v-7.51a3.99,3.99,0,0,0-2.7-3.734v1.335a.445.445,0,0,1-.889,0v-1.542a4.292,4.292,0,0,0-.509-.031h-1.7v1.573a.445.445,0,0,1-.89,0v-1.573h-2.188v1.1a.445.445,0,0,1-.89,0v-10H128.69v16.619a.445.445,0,0,1-.889,0v-5.222l-.288.2a2.686,2.686,0,0,0-1.162,2.194v6.6a.445.445,0,0,1-.889,0v-6.6a3.542,3.542,0,0,1,1.53-2.895l.808-.561V671.013a.331.331,0,0,1,.007-.073v-.005a.358.358,0,0,1,.022-.068l.008-.02.006-.015,1.251-2.448a.759.759,0,0,1,1.342,0l1.25,2.448,0,.011.012.028a.314.314,0,0,1,.017.051l.007.031c0,.019,0,.037.006.056V679.5h4.78a5.071,5.071,0,0,1,1.034.105l.026.005A4.879,4.879,0,0,1,141.5,684.333Zm-10.929-13.742-.807-1.577-.805,1.577Zm16.392-3.8a2.13,2.13,0,0,1-4.2.431H140.8v7.134a4.172,4.172,0,0,1-4.232,4.1h-3.6a.432.432,0,1,1,0-.863h3.6a3.3,3.3,0,0,0,3.342-3.237V659.228a3.3,3.3,0,0,0-3.342-3.239H123.078a3.3,3.3,0,0,0-3.342,3.239v1.02a.445.445,0,0,1-.889,0v-1.02a4.172,4.172,0,0,1,4.231-4.1h6.3v-1.907a2.123,2.123,0,1,1,.89,0v1.907h6.3a4.172,4.172,0,0,1,4.232,4.1v7.132h1.968a2.13,2.13,0,0,1,4.2.431ZM129.823,652.4a1.2,1.2,0,1,0-1.232-1.194A1.216,1.216,0,0,0,129.823,652.4Zm16.253,14.389a1.233,1.233,0,1,0-1.233,1.2A1.215,1.215,0,0,0,146.076,666.791Z" transform="translate(-112.681 -649.15)" fill="#1c1d21"/>
</svg>
