<svg xmlns="http://www.w3.org/2000/svg" width="28.322" height="28.938" viewBox="0 0 28.322 28.938">
  <g id="Group_3585" data-name="Group 3585" transform="translate(-34.153 -197.243)">
    <g id="Group_2208" data-name="Group 2208" transform="translate(22.342 -371.621)" opacity="0.379">
      <g id="Group_2207" data-name="Group 2207" transform="translate(12.311 569.364)">
        <path id="Path_1333" data-name="Path 1333" d="M35.517,579.569H28.676a1.42,1.42,0,0,1-1.388-1.64l.407-2.758a9.464,9.464,0,0,0-.122-3.423l-.167-.75a2.065,2.065,0,0,0-2.006-1.634h-.065a2.02,2.02,0,0,0-1.993,2.067,9.456,9.456,0,0,1-.751,3.718l-1.24,2.917a2.448,2.448,0,0,1-2.246,1.5H12.311v17.612H35.517a3.722,3.722,0,0,0,3.69-3.754V583.32A3.721,3.721,0,0,0,35.517,579.569Z" transform="translate(-12.311 -569.364)" fill="#03c5fc" stroke="#707070" stroke-width="1"/>
      </g>
    </g>
    <g id="Group_2211" data-name="Group 2211" transform="translate(22.439 -370.677)">
      <path id="Path_1335" data-name="Path 1335" d="M40.036,583v9.684a4.236,4.236,0,0,1-4.282,4.178H12.585a.583.583,0,1,1,0-1.165h4.909V579.982H12.585a.583.583,0,1,1,0-1.165h6.784a1.845,1.845,0,0,0,1.694-1.087l1.238-2.8a8.1,8.1,0,0,0,.7-3.33,2.529,2.529,0,0,1,.767-1.827,2.586,2.586,0,0,1,1.822-.736h.065a2.623,2.623,0,0,1,2.586,2.02l.164.718a9.193,9.193,0,0,1,.129,3.494l-.4,2.643a.759.759,0,0,0,.187.63.8.8,0,0,0,.608.272h6.83A4.236,4.236,0,0,1,40.036,583Zm-1.2,0a3.055,3.055,0,0,0-3.087-3.013h-6.83a2.017,2.017,0,0,1-1.513-.677,1.915,1.915,0,0,1-.464-1.562l.406-2.643a8.114,8.114,0,0,0-.113-3.065l-.166-.72a1.441,1.441,0,0,0-1.421-1.109h-.065a1.385,1.385,0,0,0-1.393,1.4,9.243,9.243,0,0,1-.8,3.794l-1.238,2.8a3.044,3.044,0,0,1-2.791,1.791h-.68v15.711H35.754a3.055,3.055,0,0,0,3.087-3.013v-.187H36.877a.582.582,0,1,1,0-1.163h1.964v-2.909H36.877a.583.583,0,1,1,0-1.165h1.964v-2.911H36.877a.582.582,0,1,1,0-1.163h1.964Z" transform="translate(0)" fill="#1c1d21"/>
    </g>
  </g>
</svg>
