<svg xmlns="http://www.w3.org/2000/svg" width="27.204" height="32.328" viewBox="0 0 27.204 32.328">
  <g id="Group_3580" data-name="Group 3580" transform="translate(-30.011 -77.643)">
    <g id="Group_3571" data-name="Group 3571" transform="translate(-33.031 -620)">
      <g id="Group_2892" data-name="Group 2892">
        <path id="Path_1696" data-name="Path 1696" d="M64.468,720.558V707.941a.562.562,0,0,1,.563-.562H88.257a.562.562,0,0,1,.563.562v12.216" fill="#aab1ba"/>
      </g>
    </g>
    <g id="Group_3572" data-name="Group 3572" transform="translate(-33.031 -620)">
      <g id="Group_2894" data-name="Group 2894">
        <path id="Path_1697" data-name="Path 1697" d="M76.644,707.356h0a9.149,9.149,0,0,0-5.468-1.815h-5.2v13.364h5.2a9.148,9.148,0,0,1,5.468,1.814h0a9.148,9.148,0,0,1,5.468-1.814h5.2V705.541h-5.2A9.149,9.149,0,0,0,76.644,707.356Z" fill="#ecf4f7"/>
      </g>
    </g>
    <g id="Group_3573" data-name="Group 3573" transform="translate(-33.031 -620)">
      <g id="Group_2896" data-name="Group 2896">
        <path id="Path_1698" data-name="Path 1698" d="M85.6,705.542v4.31l-1.285-1.121-1.285,1.121v-4.31" fill="#83e1e5"/>
      </g>
    </g>
    <g id="Group_3574" data-name="Group 3574" transform="translate(-33.031 -620)">
      <g id="Group_2898" data-name="Group 2898">
        <path id="Path_1699" data-name="Path 1699" d="M80.6,714.027a3.955,3.955,0,1,1-3.955-3.956A3.955,3.955,0,0,1,80.6,714.027Z" fill="#03c5fc"/>
      </g>
    </g>
    <g id="Group_3575" data-name="Group 3575" transform="translate(-33.031 -620)">
      <g id="Group_2900" data-name="Group 2900">
        <path id="Path_1700" data-name="Path 1700" d="M85.6,698.766v3.051a.8.8,0,0,1-.8.8H80.59a.8.8,0,0,0-.566.235l-1.566,1.565v-5.651a.8.8,0,0,1,.8-.8H84.8A.8.8,0,0,1,85.6,698.766Z" fill="#ecf4f7"/>
      </g>
    </g>
    <g id="Group_3576" data-name="Group 3576" transform="translate(-33.031 -620)">
      <g id="Group_2902" data-name="Group 2902">
        <path id="Path_1701" data-name="Path 1701" d="M67.684,698.766v3.051a.8.8,0,0,0,.8.8H72.7a.8.8,0,0,1,.566.235l1.566,1.565v-5.651a.8.8,0,0,0-.8-.8H68.484A.8.8,0,0,0,67.684,698.766Z" fill="#ecf4f7"/>
      </g>
    </g>
    <g id="Group_3577" data-name="Group 3577" transform="translate(-33.031 -620)" opacity="0.466">
      <g id="Group_2904" data-name="Group 2904">
        <path id="Path_1702" data-name="Path 1702" d="M81.764,729.648v-7.841a.8.8,0,0,1,.8-.8h1.646a2.367,2.367,0,0,0,1.673-.693L89.5,716.7a1.442,1.442,0,0,0,.422-1.019h0a.89.89,0,0,0-1.5-.652l-2.044,1.9a4.151,4.151,0,0,1-2.77,1.059H69.675a4.151,4.151,0,0,1-2.77-1.059l-2.045-1.9a.89.89,0,0,0-1.495.652h0a1.442,1.442,0,0,0,.422,1.019l3.614,3.614a2.366,2.366,0,0,0,1.672.693H70.72a.8.8,0,0,1,.8.8v7.841" fill="#03c5fc"/>
      </g>
    </g>
    <g id="Group_3578" data-name="Group 3578" transform="translate(-33.031 -620)">
      <path id="Path_1703" data-name="Path 1703" d="M64.145,710.555v-.484a.324.324,0,0,1,.647,0v.484a.324.324,0,0,1-.647,0Zm13.99-6.138v-5.651a1.124,1.124,0,0,1,1.123-1.123H84.8a1.125,1.125,0,0,1,1.124,1.123v3.051A1.125,1.125,0,0,1,84.8,702.94H80.59a.475.475,0,0,0-.338.14l-1.566,1.566a.32.32,0,0,1-.228.1.316.316,0,0,1-.124-.025A.323.323,0,0,1,78.135,704.417Zm.646-.78,1.014-1.014a1.118,1.118,0,0,1,.795-.329H84.8a.478.478,0,0,0,.477-.477v-3.051a.478.478,0,0,0-.477-.477H79.258a.478.478,0,0,0-.477.477Zm4.616-2.883h.179a.324.324,0,1,0,0-.647H83.4a.324.324,0,0,0,0,.647Zm-1.456,0h.179a.324.324,0,1,0,0-.647h-.179a.324.324,0,0,0,0,.647Zm-1.456,0h.179a.324.324,0,0,0,0-.647h-.179a.324.324,0,0,0,0,.647Zm-13.124,1.063v-3.051a1.125,1.125,0,0,1,1.123-1.123H74.03a1.125,1.125,0,0,1,1.123,1.123v5.651a.323.323,0,0,1-.2.3.316.316,0,0,1-.124.025.324.324,0,0,1-.229-.1l-1.566-1.566a.473.473,0,0,0-.337-.14H68.484A1.125,1.125,0,0,1,67.361,701.817Zm.647,0a.477.477,0,0,0,.476.477H72.7a1.12,1.12,0,0,1,.795.329l1.014,1.014v-4.871a.478.478,0,0,0-.477-.477H68.484a.477.477,0,0,0-.476.477Zm1.7-1.063h.179a.324.324,0,0,0,0-.647h-.179a.324.324,0,1,0,0,.647Zm1.456,0h.179a.324.324,0,0,0,0-.647h-.179a.324.324,0,1,0,0,.647Zm1.456,0H72.8a.324.324,0,0,0,0-.647h-.179a.324.324,0,1,0,0,.647Zm17.1,16.172-.586.586v2.645a.323.323,0,0,1-.647,0v-2l-2.38,2.38a2.672,2.672,0,0,1-1.9.788H82.568a.48.48,0,0,0-.48.48v7.841a.323.323,0,0,1-.647,0v-7.841a1.129,1.129,0,0,1,1.127-1.127h1.646a2.029,2.029,0,0,0,1.445-.6l3.613-3.613a1.113,1.113,0,0,0,.327-.791.567.567,0,0,0-.952-.415l-2.044,1.9a4.469,4.469,0,0,1-2.99,1.146H69.675a4.465,4.465,0,0,1-2.986-1.142l-2.048-1.9a.567.567,0,0,0-.953.415,1.114,1.114,0,0,0,.328.791l3.613,3.613a2.029,2.029,0,0,0,1.444.6H70.72a1.129,1.129,0,0,1,1.127,1.127v7.841a.324.324,0,0,1-.647,0v-7.841a.481.481,0,0,0-.48-.48H69.073a2.671,2.671,0,0,1-1.9-.788l-2.38-2.38v2.4a.324.324,0,0,1-.647,0v-3.046l-.586-.586a1.751,1.751,0,0,1-.517-1.248,1.2,1.2,0,0,1,.728-1.112,1.238,1.238,0,0,1,.375-.1V711.58a.324.324,0,1,1,.647,0v3.008a1.244,1.244,0,0,1,.288.2l.573.531V707.7h-.622a.239.239,0,0,0-.239.239v.843a.324.324,0,1,1-.647,0v-.843a.886.886,0,0,1,.886-.886h.622v-1.514a.323.323,0,0,1,.323-.323h5.2a9.534,9.534,0,0,1,5.468,1.739,9.532,9.532,0,0,1,5.468-1.739h5.2a.323.323,0,0,1,.323.323v1.514h.622a.886.886,0,0,1,.886.886v6.528a1.238,1.238,0,0,1,.375.1,1.2,1.2,0,0,1,.728,1.112A1.751,1.751,0,0,1,89.729,716.926Zm-6.373-7.785.75-.654a.324.324,0,0,1,.425,0l.749.654v-3.276H83.356Zm3.632,6.779V705.865H85.927v3.987a.322.322,0,0,1-.19.294.313.313,0,0,1-.133.029.321.321,0,0,1-.213-.08l-1.073-.935-1.072.935a.323.323,0,0,1-.536-.243v-3.987h-.6a8.883,8.883,0,0,0-5.145,1.657v1.328a.323.323,0,0,1-.646,0v-1.328a8.883,8.883,0,0,0-5.145-1.657H66.3V715.92l.824.765a3.82,3.82,0,0,0,2.551.974h4.711a4.279,4.279,0,1,1,4.516,0h4.711a3.822,3.822,0,0,0,2.554-.977Zm-6.712-1.893a3.632,3.632,0,1,0-3.632,3.632A3.637,3.637,0,0,0,80.276,714.027Zm7.931.762a1.271,1.271,0,0,1,.289-.2v-6.647a.239.239,0,0,0-.239-.239h-.622v7.618Z" fill="#1c1d21"/>
    </g>
  </g>
</svg>
