<svg xmlns="http://www.w3.org/2000/svg" width="31.793" height="32.328" viewBox="0 0 31.793 32.328">
  <g id="Group_3584" data-name="Group 3584" transform="translate(-35.824 -469.212)">
    <g id="Group_1291" data-name="Group 1291" transform="translate(-121.908 208)">
      <g id="Group_1290" data-name="Group 1290">
        <path id="Path_984" data-name="Path 984" d="M167.868,293.217V278.639l4.9,8.555H174.5L168,274.733a1.742,1.742,0,0,0-1.545-.937h0v-.056h-4.742a3.509,3.509,0,0,0-3.509,3.509v15.968" fill="#fddf7f"/>
      </g>
    </g>
    <g id="Group_1293" data-name="Group 1293" transform="translate(-121.908 208)">
      <g id="Group_1292" data-name="Group 1292">
        <path id="Path_985" data-name="Path 985" d="M179.389,293.217V278.639l-4.9,8.555h-1.732l6.495-12.461a1.742,1.742,0,0,1,1.545-.937h0v-.056h4.742a3.509,3.509,0,0,1,3.509,3.509v15.968" fill="#83e1e5"/>
      </g>
    </g>
    <g id="Group_1295" data-name="Group 1295" transform="translate(-121.908 208)">
      <g id="Group_1294" data-name="Group 1294">
        <path id="Path_986" data-name="Path 986" d="M170.354,267.684a6.149,6.149,0,1,0-8.959,5.47,3.163,3.163,0,0,1,1.43,1.506l.84,1.855a.592.592,0,0,0,1.079,0l.84-1.855a3.106,3.106,0,0,1,1.406-1.494A6.148,6.148,0,0,0,170.354,267.684Z" fill="#ecf4f7"/>
      </g>
    </g>
    <g id="Group_1297" data-name="Group 1297" transform="translate(-121.908 208)">
      <g id="Group_1296" data-name="Group 1296">
        <path id="Path_987" data-name="Path 987" d="M160.332,293.217V287.45h7.536v5.767" fill="#aab1ba"/>
      </g>
    </g>
    <g id="Group_1299" data-name="Group 1299" transform="translate(-121.908 208)">
      <g id="Group_1298" data-name="Group 1298">
        <path id="Path_988" data-name="Path 988" d="M189.2,267.684a6.149,6.149,0,1,0-8.958,5.47,3.156,3.156,0,0,1,1.429,1.506l.84,1.855a.593.593,0,0,0,1.08,0l.839-1.855a3.106,3.106,0,0,1,1.406-1.494A6.148,6.148,0,0,0,189.2,267.684Z" fill="#ecf4f7"/>
      </g>
    </g>
    <g id="Group_1301" data-name="Group 1301" transform="translate(-121.908 208)">
      <g id="Group_1300" data-name="Group 1300">
        <path id="Path_989" data-name="Path 989" d="M186.925,293.217V287.45h-7.536v5.767" fill="#83e1e5"/>
      </g>
    </g>
    <g id="Group_1302" data-name="Group 1302" transform="translate(-121.908 208)">
      <path id="Path_990" data-name="Path 990" d="M167.715,274.883a1.416,1.416,0,0,0-1.259-.764.327.327,0,0,1-.129-.027,2.9,2.9,0,0,0-.449.7l-.839,1.856a.916.916,0,0,1-1.669,0l-.839-1.854a2.855,2.855,0,0,0-.479-.73h-.338a3.19,3.19,0,0,0-3.186,3.185v15.968a.323.323,0,0,1-.646,0V277.249a3.836,3.836,0,0,1,3.372-3.8l-.007,0a6.471,6.471,0,0,1-3.511-5.975,6.389,6.389,0,0,1,.281-1.681.323.323,0,0,1,.618.191,5.78,5.78,0,0,0-.253,1.511,5.858,5.858,0,0,0,3.161,5.379,3.5,3.5,0,0,1,1.577,1.66l.839,1.855a.27.27,0,0,0,.491,0l.839-1.855a3.441,3.441,0,0,1,1.555-1.649,5.826,5.826,0,0,0-2.916-11.013,5.709,5.709,0,0,0-2.558.733,5.881,5.881,0,0,0-1.216.909.323.323,0,0,1-.45-.464,6.472,6.472,0,0,1,1.35-1.008,6.349,6.349,0,0,1,2.844-.816,6.472,6.472,0,0,1,3.239,12.235c-.053.027-.1.057-.155.087a2.057,2.057,0,0,1,1.306,1.043l4.942,9.482a.323.323,0,1,1-.573.3Zm21.66,2.366v15.968a.323.323,0,0,1-.646,0V277.249a3.189,3.189,0,0,0-3.186-3.185H185.2a2.886,2.886,0,0,0-.474.729l-.84,1.856a.916.916,0,0,1-1.669,0l-.839-1.854a2.851,2.851,0,0,0-.452-.7.33.33,0,0,1-.126.026,1.414,1.414,0,0,0-1.258.764l-6.495,12.46a.323.323,0,1,1-.573-.3l6.494-12.46a2.058,2.058,0,0,1,1.3-1.042c-.058-.036-.117-.069-.177-.1A6.472,6.472,0,1,1,187.522,263,6.472,6.472,0,0,1,186,273.445,3.838,3.838,0,0,1,189.375,277.249Zm-3.683-4.371a5.826,5.826,0,0,0-2.637-11.02c-.092,0-.185,0-.278.007a5.826,5.826,0,0,0-2.386,11,3.491,3.491,0,0,1,1.577,1.66l.839,1.855a.27.27,0,0,0,.491,0l.84-1.855A3.434,3.434,0,0,1,185.692,272.878Zm-26.9-8.121a.317.317,0,0,0,.169.048.321.321,0,0,0,.275-.154c.063-.1.13-.2.2-.3a.323.323,0,1,0-.529-.372c-.077.109-.151.221-.22.335A.322.322,0,0,0,158.792,264.757Zm3.524,3.637a.324.324,0,1,0,0-.647h-.3a.324.324,0,1,0,0,.647Zm2.04,0a.324.324,0,1,0,0-.647h-.3a.324.324,0,1,0,0,.647Zm2.04,0a.324.324,0,1,0,0-.647h-.3a.324.324,0,1,0,0,.647Zm14.769-.647h-.3a.324.324,0,0,0,0,.647h.3a.324.324,0,0,0,0-.647Zm2.04,0h-.3a.324.324,0,0,0,0,.647h.3a.324.324,0,0,0,0-.647Zm2.04.647a.324.324,0,0,0,0-.647h-.3a.324.324,0,0,0,0,.647Zm-17.1,10.084a.323.323,0,0,0-.6.161v14.578a.324.324,0,0,0,.647,0V279.855l3.585,6.265a.324.324,0,0,0,.562-.321Zm-4.1,13.058a.323.323,0,0,0-.324.323v1.358a.324.324,0,0,0,.647,0v-1.358A.323.323,0,0,0,164.053,291.536Zm-1.243-4.409h-2.154v-8.488a.324.324,0,1,0-.647,0v14.578a.324.324,0,0,0,.647,0v-5.444h2.154a.323.323,0,0,0,0-.646Zm1.9,0h-.517a.323.323,0,1,0,0,.646h.517a.323.323,0,1,0,0-.646Zm18.362,0h-.517a.323.323,0,0,0,0,.646h.517a.323.323,0,1,0,0-.646Zm3.857-8.812a.323.323,0,0,0-.323.324v8.488h-2.155a.323.323,0,1,0,0,.646H186.6v5.444a.323.323,0,0,0,.646,0V278.639A.324.324,0,0,0,186.925,278.315Zm-7.453.011a.324.324,0,0,0-.364.152l-4.9,8.555a.323.323,0,1,0,.561.321l4.291-7.5v13.362a.324.324,0,0,0,.647,0V278.639A.324.324,0,0,0,179.472,278.326Z" fill="#1c1d21"/>
    </g>
  </g>
</svg>
