<svg xmlns="http://www.w3.org/2000/svg" width="32.328" height="32.328" viewBox="0 0 32.328 32.328">
  <g id="Group_3582" data-name="Group 3582" transform="translate(-32.686 -268.643)">
    <g id="Group_2956" data-name="Group 2956" transform="translate(-173.271 -429)">
      <g id="Group_2955" data-name="Group 2955">
        <rect id="Rectangle_206" data-name="Rectangle 206" width="31.682" height="21.143" rx="2.586" transform="translate(206.28 697.966)" fill="#ecf4f7"/>
      </g>
    </g>
    <g id="Group_2958" data-name="Group 2958" transform="translate(-173.271 -429)">
      <g id="Group_2957" data-name="Group 2957">
        <rect id="Rectangle_207" data-name="Rectangle 207" width="31.682" height="8.659" rx="2.263" transform="translate(206.28 720.989)" fill="#ecf4f7"/>
      </g>
    </g>
    <g id="Group_2960" data-name="Group 2960" transform="translate(-173.271 -429)" opacity="0.413">
      <g id="Group_2959" data-name="Group 2959">
        <rect id="Rectangle_208" data-name="Rectangle 208" width="27.802" height="17.263" rx="1.309" transform="translate(208.22 699.906)" fill="#83e587"/>
      </g>
    </g>
    <g id="Group_2962" data-name="Group 2962" transform="translate(-173.271 -429)">
      <g id="Group_2961" data-name="Group 2961">
        <rect id="Rectangle_209" data-name="Rectangle 209" width="1.616" height="1.904" transform="translate(213.554 722.929)" fill="#83e1e5"/>
      </g>
    </g>
    <g id="Group_2964" data-name="Group 2964" transform="translate(-173.271 -429)">
      <g id="Group_2963" data-name="Group 2963">
        <rect id="Rectangle_210" data-name="Rectangle 210" width="1.616" height="1.904" transform="translate(216.14 722.929)" fill="#83e1e5"/>
      </g>
    </g>
    <g id="Group_2966" data-name="Group 2966" transform="translate(-173.271 -429)">
      <g id="Group_2965" data-name="Group 2965">
        <rect id="Rectangle_211" data-name="Rectangle 211" width="1.616" height="1.904" transform="translate(218.727 722.929)" fill="#83e1e5"/>
      </g>
    </g>
    <g id="Group_2968" data-name="Group 2968" transform="translate(-173.271 -429)">
      <g id="Group_2967" data-name="Group 2967">
        <rect id="Rectangle_212" data-name="Rectangle 212" width="1.616" height="1.904" transform="translate(210.968 722.929)" fill="#83e1e5"/>
      </g>
    </g>
    <g id="Group_2970" data-name="Group 2970" transform="translate(-173.271 -429)">
      <g id="Group_2969" data-name="Group 2969">
        <path id="Path_1728" data-name="Path 1728" d="M210,722.929h-.924a.854.854,0,0,0-.854.854v1.05H210Z" fill="#83e1e5"/>
      </g>
    </g>
    <g id="Group_2972" data-name="Group 2972" transform="translate(-173.271 -429)">
      <g id="Group_2971" data-name="Group 2971">
        <rect id="Rectangle_213" data-name="Rectangle 213" width="1.616" height="1.904" transform="translate(221.313 722.929)" fill="#83e1e5"/>
      </g>
    </g>
    <g id="Group_2974" data-name="Group 2974" transform="translate(-173.271 -429)">
      <g id="Group_2973" data-name="Group 2973">
        <rect id="Rectangle_214" data-name="Rectangle 214" width="1.616" height="1.904" transform="translate(231.658 722.929)" fill="#83e1e5"/>
      </g>
    </g>
    <g id="Group_2976" data-name="Group 2976" transform="translate(-173.271 -429)">
      <g id="Group_2975" data-name="Group 2975">
        <rect id="Rectangle_215" data-name="Rectangle 215" width="1.616" height="1.904" transform="translate(229.072 722.929)" fill="#83e1e5"/>
      </g>
    </g>
    <g id="Group_2980" data-name="Group 2980" transform="translate(-173.271 -429)">
      <g id="Group_2979" data-name="Group 2979">
        <path id="Path_1730" data-name="Path 1730" d="M236.022,724.833v-1.05a.854.854,0,0,0-.854-.854h-.924v1.9Z" fill="#83e1e5"/>
      </g>
    </g>
    <g id="Group_2982" data-name="Group 2982" transform="translate(-173.271 -429)">
      <g id="Group_2981" data-name="Group 2981">
        <rect id="Rectangle_216" data-name="Rectangle 216" width="1.616" height="1.904" transform="translate(223.899 722.929)" fill="#83e1e5"/>
      </g>
    </g>
    <g id="Group_2984" data-name="Group 2984" transform="translate(-173.271 -429)">
      <g id="Group_2983" data-name="Group 2983">
        <rect id="Rectangle_217" data-name="Rectangle 217" width="1.616" height="1.904" transform="translate(226.485 722.929)" fill="#83e1e5"/>
      </g>
    </g>
    <g id="Group_3002" data-name="Group 3002" transform="translate(-173.271 -429)">
      <g id="Group_3001" data-name="Group 3001">
        <path id="Path_1733" data-name="Path 1733" d="M206.28,711.054a2.623,2.623,0,0,1,1.822.736l2.486,2.405V703.44l-2.486,2.4a2.623,2.623,0,0,1-1.822.736Z" fill="#fddf7f"/>
      </g>
    </g>
    <g id="Group_3004" data-name="Group 3004" transform="translate(-173.271 -429)">
      <g id="Group_3003" data-name="Group 3003">
        <path id="Path_1734" data-name="Path 1734" d="M210.588,706.821a2,2,0,0,1,0,3.993Z" fill="#ecf4f7"/>
      </g>
    </g>
    <g id="Group_3006" data-name="Group 3006" transform="translate(-173.271 -429)">
      <g id="Group_3005" data-name="Group 3005">
        <path id="Path_1735" data-name="Path 1735" d="M237.962,711.054a2.623,2.623,0,0,0-1.822.736l-2.486,2.405V703.44l2.486,2.4a2.623,2.623,0,0,0,1.822.736Z" fill="#fddf7f"/>
      </g>
    </g>
    <g id="Group_3008" data-name="Group 3008" transform="translate(-173.271 -429)">
      <g id="Group_3007" data-name="Group 3007">
        <path id="Path_1736" data-name="Path 1736" d="M233.654,706.821a2,2,0,0,0,0,3.993Z" fill="#ecf4f7"/>
      </g>
    </g>
    <g id="Group_3012" data-name="Group 3012" transform="translate(-173.271 -429)">
      <g id="Group_3011" data-name="Group 3011">
        <path id="Path_1738" data-name="Path 1738" d="M215.7,711.975v-1.761a2.131,2.131,0,0,1,4.261,0v1.761" fill="#03c5fc"/>
      </g>
    </g>
    <g id="Group_3016" data-name="Group 3016" transform="translate(-173.271 -429)">
      <g id="Group_3015" data-name="Group 3015">
        <path id="Path_1740" data-name="Path 1740" d="M219.991,711.975v-1.761a2.13,2.13,0,0,1,4.26,0v1.761" fill="#fddf7f"/>
      </g>
    </g>
    <g id="Group_3020" data-name="Group 3020" transform="translate(-173.271 -429)">
      <g id="Group_3019" data-name="Group 3019">
        <path id="Path_1742" data-name="Path 1742" d="M224.285,711.975v-1.761a2.131,2.131,0,0,1,4.261,0v1.761" fill="#03c5fc"/>
      </g>
    </g>
    <g id="Group_3021" data-name="Group 3021" transform="translate(-173.271 -429)">
      <path id="Path_1743" data-name="Path 1743" d="M238.285,700.552v4.62a.324.324,0,1,1-.647,0v-4.62a2.266,2.266,0,0,0-2.262-2.263h-26.51a2.267,2.267,0,0,0-2.263,2.263v4.7a.323.323,0,0,1-.646,0v-4.7a2.912,2.912,0,0,1,2.909-2.909h26.51A2.912,2.912,0,0,1,238.285,700.552Zm-.323,11.561a.324.324,0,0,0-.324.324v4.086a2.266,2.266,0,0,1-2.262,2.263h-26.51a2.267,2.267,0,0,1-2.263-2.263V712.3a.323.323,0,0,0-.646,0v4.225a2.912,2.912,0,0,0,2.909,2.909h26.51a2.912,2.912,0,0,0,2.909-2.909v-4.086A.324.324,0,0,0,237.962,712.113Zm-29.419-9.233v-1.665a.987.987,0,0,1,.986-.986h1.73a.323.323,0,0,0,0-.646h-1.73a1.634,1.634,0,0,0-1.632,1.632v1.665a.323.323,0,0,0,.646,0Zm5.722-2.651a.323.323,0,1,0,0-.646h-.485a.323.323,0,1,0,0,.646Zm-1.681,0a.323.323,0,0,0,0-.646h-.356a.323.323,0,1,0,0,.646Zm22.129,17.263a1.634,1.634,0,0,0,1.632-1.632V714.2a.323.323,0,0,0-.646,0v1.665a.987.987,0,0,1-.986.986h-1.73a.323.323,0,1,0,0,.646Zm-4.251,0a.323.323,0,0,0,0-.646h-.485a.323.323,0,1,0,0,.646Zm1.551,0a.323.323,0,1,0,0-.646h-.355a.323.323,0,1,0,0,.646Zm6.272,5.76v4.133a2.589,2.589,0,0,1-2.586,2.586H208.543a2.589,2.589,0,0,1-2.586-2.586v-4.133a2.589,2.589,0,0,1,2.586-2.586H235.7A2.589,2.589,0,0,1,238.285,723.252Zm-.647,0a1.941,1.941,0,0,0-1.939-1.939H208.543a1.942,1.942,0,0,0-1.94,1.939v4.133a1.943,1.943,0,0,0,1.94,1.94H235.7a1.942,1.942,0,0,0,1.939-1.94Zm-27.374-16.431V704.2l-1.938,1.875a2.927,2.927,0,0,1-2.046.828.324.324,0,0,1,0-.647,2.285,2.285,0,0,0,1.6-.646l2.486-2.4a.323.323,0,0,1,.548.232v3.081a2.319,2.319,0,0,1,0,4.593V714.2a.325.325,0,0,1-.2.3.329.329,0,0,1-.126.025.319.319,0,0,1-.225-.091l-2.486-2.4a2.285,2.285,0,0,0-1.6-.646.324.324,0,0,1,0-.647,2.927,2.927,0,0,1,2.046.828l1.938,1.875v-6.612Zm.647.354v3.285a1.674,1.674,0,0,0,0-3.285Zm23.067,3.639v2.619l1.938-1.875a2.925,2.925,0,0,1,2.046-.828.324.324,0,0,1,0,.647,2.285,2.285,0,0,0-1.6.646l-2.486,2.4a.319.319,0,0,1-.225.091.329.329,0,0,1-.126-.025.325.325,0,0,1-.2-.3v-3.081a2.319,2.319,0,0,1,0-4.593V703.44a.323.323,0,0,1,.548-.232l2.486,2.4a2.285,2.285,0,0,0,1.6.646.324.324,0,0,1,0,.647,2.925,2.925,0,0,1-2.046-.828l-1.938-1.875v6.612Zm-.647-.354v-3.285a1.674,1.674,0,0,0,0,3.285Zm-16.614-2.433a1.815,1.815,0,1,1,2.219,0,2.474,2.474,0,0,1,1.038,1,2.472,2.472,0,0,1,1.037-1,1.815,1.815,0,1,1,2.22,0,2.472,2.472,0,0,1,1.037,1,2.474,2.474,0,0,1,1.038-1,1.816,1.816,0,1,1,2.219,0,2.455,2.455,0,0,1,1.344,2.187v1.761a.323.323,0,0,1-.646,0v-1.761a1.808,1.808,0,0,0-3.615,0v1.761a.322.322,0,0,1-.323.323h-.034a.323.323,0,0,1-.323-.323v-1.761a1.807,1.807,0,1,0-3.614,0v1.761a.323.323,0,0,1-.323.323h-.034a.322.322,0,0,1-.323-.323v-1.761a1.808,1.808,0,0,0-3.615,0v1.761a.323.323,0,0,1-.646,0v-1.761A2.455,2.455,0,0,1,216.717,708.027Zm9.7-.267a1.169,1.169,0,1,0-1.168-1.168A1.17,1.17,0,0,0,226.415,707.76Zm-4.294,0a1.169,1.169,0,1,0-1.169-1.168A1.169,1.169,0,0,0,222.121,707.76Zm-4.295,0a1.169,1.169,0,1,0-1.168-1.168A1.17,1.17,0,0,0,217.826,707.76Z" fill="#1c1d21"/>
    </g>
  </g>
</svg>
