<svg xmlns="http://www.w3.org/2000/svg" width="32.329" height="32.307" viewBox="0 0 32.329 32.307">
  <g id="Group_3583" data-name="Group 3583" transform="translate(-35.288 -407.181)">
    <g id="Group_1754" data-name="Group 1754" transform="translate(-122.176 -48)">
      <g id="Group_1753" data-name="Group 1753">
        <rect id="Rectangle_99" data-name="Rectangle 99" width="18.71" height="30.559" rx="2.495" transform="translate(164.274 456.627)" fill="#ecf4f7"/>
      </g>
    </g>
    <g id="Group_1756" data-name="Group 1756" transform="translate(-122.176 -48)" opacity="0.286">
      <g id="Group_1755" data-name="Group 1755">
        <rect id="Rectangle_100" data-name="Rectangle 100" width="14.968" height="24.203" rx="1.081" transform="translate(166.145 458.498)" fill="#03c5fc"/>
      </g>
    </g>
    <g id="Group_1760" data-name="Group 1760" transform="translate(-122.176 -48)">
      <g id="Group_1759" data-name="Group 1759">
        <path id="Path_1166" data-name="Path 1166" d="M178.738,460.614a5.11,5.11,0,1,1-5.109-5.11A5.11,5.11,0,0,1,178.738,460.614Z" fill="#83e1e5"/>
      </g>
    </g>
    <g id="Group_1762" data-name="Group 1762" transform="translate(-122.176 -48)">
      <g id="Group_1761" data-name="Group 1761">
        <path id="Path_1167" data-name="Path 1167" d="M178.738,460.614a5.11,5.11,0,1,1-5.109-5.11A5.11,5.11,0,0,1,178.738,460.614Z" fill="#fddf7f"/>
      </g>
    </g>
    <g id="Group_1779" data-name="Group 1779" transform="translate(-122.176 -48)">
      <path id="Path_1176" data-name="Path 1176" d="M168.219,456.95h-1.451a2.174,2.174,0,0,0-2.171,2.172v4.044a.323.323,0,1,1-.646,0v-4.044a2.821,2.821,0,0,1,2.817-2.818h1.451a.323.323,0,1,1,0,.646Zm-3.945,8.35a.323.323,0,0,0,.323-.323v-.518a.323.323,0,1,0-.646,0v.518A.323.323,0,0,0,164.274,465.3Zm0,13.953a.323.323,0,0,0,.323-.323V466.076a.323.323,0,0,0-.646,0V478.93A.323.323,0,0,0,164.274,479.253Zm18.386-20.131V478.93a.324.324,0,0,0,.647,0V459.122a2.821,2.821,0,0,0-2.818-2.818h-1.58a.323.323,0,0,0,0,.646h1.58A2.174,2.174,0,0,1,182.66,459.122Zm-7.638,25.8a1.394,1.394,0,1,1-1.393-1.394A1.395,1.395,0,0,1,175.022,484.92Zm-.646,0a.748.748,0,1,0-.747.747A.748.748,0,0,0,174.376,484.92Zm-.747-17.01a.324.324,0,0,0,.323-.324v-.4a.324.324,0,0,0-.647,0v.4A.324.324,0,0,0,173.629,467.91Zm-.324,1.273a.324.324,0,0,0,.647,0v-.4a.324.324,0,0,0-.647,0Zm0,1.6a.324.324,0,0,0,.647,0v-.4a.324.324,0,1,0-.647,0Zm4.628-13.474a5.416,5.416,0,0,1,0,6.617.334.334,0,0,1-.021.031,5.4,5.4,0,0,1-3.719,2.064l-.022,0c-.084.008-.169.015-.254.019l-.028,0c-.086,0-.173.006-.26.006s-.174,0-.261-.006l-.028,0c-.085,0-.17-.011-.254-.019l-.022,0a5.4,5.4,0,0,1-3.719-2.064l-.021-.031a5.416,5.416,0,0,1,0-6.617l.021-.031a5.4,5.4,0,0,1,3.719-2.064l.022,0c.084-.008.169-.015.254-.019h.028c.087,0,.173-.007.261-.007s.174,0,.26.007h.028c.085,0,.17.011.254.019l.022,0a5.4,5.4,0,0,1,3.719,2.064A.213.213,0,0,1,177.933,457.3Zm.469,3.632h-1.757a9.321,9.321,0,0,1-.246,1.881,7.336,7.336,0,0,1,1.167.512A4.749,4.749,0,0,0,178.4,460.937Zm-8.711,2.393a7.377,7.377,0,0,1,1.167-.512,9.249,9.249,0,0,1-.245-1.881h-1.758A4.749,4.749,0,0,0,169.691,463.33Zm-.836-3.04h1.758a9.258,9.258,0,0,1,.245-1.881,7.464,7.464,0,0,1-1.167-.511A4.745,4.745,0,0,0,168.855,460.29Zm4.45-4.415a3.037,3.037,0,0,0-1.643,2.1,8.074,8.074,0,0,0,1.643.234Zm-1.821,2.719a8.655,8.655,0,0,0-.224,1.7H173.3v-1.437A8.759,8.759,0,0,1,171.484,458.594Zm-.224,2.343a8.655,8.655,0,0,0,.224,1.7,8.759,8.759,0,0,1,1.821-.26v-1.437Zm.4,2.318a3.037,3.037,0,0,0,1.643,2.1v-2.33A8.074,8.074,0,0,0,171.662,463.255Zm2.29,2.1a3.04,3.04,0,0,0,1.644-2.1,8.094,8.094,0,0,0-1.644-.233Zm1.821-2.718a8.654,8.654,0,0,0,.224-1.7h-2.045v1.437A8.759,8.759,0,0,1,175.773,462.634ZM176,460.29a8.654,8.654,0,0,0-.224-1.7,8.758,8.758,0,0,1-1.821.259v1.437Zm-.4-2.318a3.04,3.04,0,0,0-1.644-2.1v2.331A8.094,8.094,0,0,0,175.6,457.972Zm.626-.186a6.8,6.8,0,0,0,.935-.4,4.81,4.81,0,0,0-1.777-1.223A5.343,5.343,0,0,1,176.222,457.786Zm-6.122-.4a6.8,6.8,0,0,0,.935.4,5.343,5.343,0,0,1,.842-1.625A4.81,4.81,0,0,0,170.1,457.384Zm0,6.459a4.8,4.8,0,0,0,1.777,1.223,5.332,5.332,0,0,1-.842-1.625A6.924,6.924,0,0,0,170.1,463.843Zm7.057,0a6.924,6.924,0,0,0-.935-.4,5.332,5.332,0,0,1-.842,1.625A4.8,4.8,0,0,0,177.157,463.843Zm1.245-3.553a4.745,4.745,0,0,0-.836-2.392,7.422,7.422,0,0,1-1.167.511,9.331,9.331,0,0,1,.246,1.881Zm-12,23.742.011,3.132a.322.322,0,0,1-.322.324h0a.323.323,0,0,1-.323-.322l-.011-3.132a2.112,2.112,0,0,0-.8-1.655l-4.776-3.779a2.753,2.753,0,0,1-1.05-2.17v-.386h0v-2.039h0a.509.509,0,0,0-1.018,0v4.651a2.108,2.108,0,0,0,.621,1.5l3.368,3.368a2.751,2.751,0,0,1,.81,1.956v1.686a.323.323,0,0,1-.646,0v-1.686a2.109,2.109,0,0,0-.621-1.5l-3.368-3.368a2.746,2.746,0,0,1-.811-1.956v-4.651a1.154,1.154,0,0,1,1.988-.8,1.151,1.151,0,0,1,1.662,0,1.154,1.154,0,0,1,1.985.8v6.081l2.257,1.786A2.75,2.75,0,0,1,166.406,484.032Zm-4.969-10.08c0,.018,0,.035,0,.053v4.768l1.012.8v-5.569a.509.509,0,0,0-1.015-.053Zm-.857,4.141.208.164v-4.252c0-.018,0-.035,0-.053a.509.509,0,0,0-1.015.053h0v2.425A2.111,2.111,0,0,0,160.58,478.093Zm29.213-4.088v4.651a2.746,2.746,0,0,1-.811,1.956l-3.367,3.368a2.105,2.105,0,0,0-.621,1.5v1.686a.324.324,0,0,1-.647,0v-1.686a2.75,2.75,0,0,1,.81-1.956l3.368-3.368a2.1,2.1,0,0,0,.621-1.5v-4.651a.509.509,0,1,0-1.018,0h0v2.7h-.014a2.75,2.75,0,0,1-1.036,1.9l-4.776,3.779a2.108,2.108,0,0,0-.8,1.655l-.012,3.132a.323.323,0,0,1-.323.322h0a.322.322,0,0,1-.322-.324l.011-3.132a2.753,2.753,0,0,1,1.05-2.16l2.257-1.786v-6.081a83.849,83.849,0,0,0,2.815-1.155,1.15,1.15,0,0,0,1.664,0A1.157,1.157,0,0,1,189.793,474.005Zm-4.988,5.569,1.012-.8v-4.768c0-.018,0-.035,0-.053a.509.509,0,0,0-1.015.053Zm2.677-5.569h0a.509.509,0,0,0-1.015-.053c0,.018,0,.035,0,.053v4.252l.208-.164a2.111,2.111,0,0,0,.8-1.663Zm-8.457,1.371a1.878,1.878,0,0,1-1.875,1.875h-.375a3.152,3.152,0,0,1-1.716,2.715,3.04,3.04,0,0,1,1.718,2.735.323.323,0,0,1-.646,0,2.392,2.392,0,0,0-2.39-2.39h-.225a2.393,2.393,0,0,0-2.39,2.39.323.323,0,0,1-.646,0,3.04,3.04,0,0,1,1.718-2.735,3.152,3.152,0,0,1-1.716-2.715h-.375a1.876,1.876,0,0,1,0-3.751h.373v-1a.323.323,0,1,1,.646,0v4.659a2.5,2.5,0,0,0,5,0V472.5a.323.323,0,1,1,.646,0v1h.373A1.878,1.878,0,0,1,179.025,475.376Zm-8.918,1.228h.373v-2.457h-.373a1.229,1.229,0,0,0,0,2.457Zm8.271-1.228a1.23,1.23,0,0,0-1.228-1.229h-.373V476.6h.373A1.23,1.23,0,0,0,178.378,475.376Zm-5.5,1.228a.324.324,0,0,0,0,.647h1.5a.324.324,0,1,0,0-.647h-.428v-2.867l0-.022c0-.012,0-.024,0-.036a.266.266,0,0,0-.008-.03c0-.01-.006-.021-.01-.031a.258.258,0,0,0-.014-.029l-.014-.027a.323.323,0,0,0-.023-.029l-.014-.018,0,0a.233.233,0,0,0-.029-.026l-.02-.016a.268.268,0,0,0-.029-.016.166.166,0,0,0-.026-.014.264.264,0,0,0-.026-.009.192.192,0,0,0-.034-.01l-.023,0a.283.283,0,0,0-.04,0h0l-.022,0-.038,0-.028.008a.2.2,0,0,0-.032.01l-.029.014c-.009.005-.018.009-.027.015a.271.271,0,0,0-.029.022l-.018.014-.751.711a.323.323,0,0,0,.444.47l.206-.2V476.6Zm-13.611-6.7h.474v.475a.323.323,0,0,0,.647,0V469.9h.475a.324.324,0,0,0,0-.647h-.475v-.475a.323.323,0,0,0-.647,0v.475h-.474a.324.324,0,1,0,0,.647Zm1.658-7.688h.475v.474a.324.324,0,1,0,.647,0v-.474h.475a.324.324,0,0,0,0-.647h-.475V461.1a.324.324,0,0,0-.647,0v.475h-.475a.324.324,0,0,0,0,.647Zm25.946,6.566v.475H186.4a.324.324,0,0,0,0,.647h.475v.475a.324.324,0,0,0,.647,0V469.9h.475a.324.324,0,0,0,0-.647h-.475v-.475a.324.324,0,0,0-.647,0Zm-1.74-5.768h.474v.474a.324.324,0,1,0,.647,0v-.474h.475a.324.324,0,0,0,0-.647h-.475v-.475a.324.324,0,0,0-.647,0v.475h-.474a.324.324,0,1,0,0,.647Z" fill="#1c1d21"/>
    </g>
  </g>
</svg>
